# xmcd
#
# Track frame offsets:
# 150
# 16052
# 44389
# 63662
# 89732
# 102275
# 116810
# 148920
# 171697
#
# Disc length: 2619 seconds
#
#
# Revision: 5
# Processed by: cddbd v1.5.2PL0 Copyright (c) Steve Scherf et al.
# Submitted via: FreeRIP 2.96 
#
DISCID=880a3909
DTITLE=John Lee Hooker - Alone Vol 2
DYEAR=2003
DGENRE=Blues
TTITLE0=Put Your Hand On Your Hip
TTITLE1=Trying To Survive
TTITLE2=I Won't Be Back No More
TTITLE3=She Left Me On My Bended Knee
TTITLE4=You Ain't Too Old To Shift Them Gears
TTITLE5=Hobo Blues
TTITLE6=I Wish You Could Change Your Ways
TTITLE7=Boogie Chillen
TTITLE8=Crawlin' King Snake
EXTD=
EXTT0=
EXTT1=
EXTT2=
EXTT3=
EXTT4=
EXTT5=
EXTT6=
EXTT7=
EXTT8=
PLAYORDER=
